<mxfile host="app.diagrams.net" modified="2023-07-17T07:57:12.307Z" agent="Mozilla/5.0 (Windows NT 10.0; Win64; x64) AppleWebKit/537.36 (KHTML, like Gecko) Chrome/114.0.0.0 Safari/537.36" etag="4NaaDdFzpdy-mNWAOu_m" version="21.6.1" type="device">
  <diagram name="Page-1" id="ijoy57w1IoCUCVWKNXN4">
    <mxGraphModel dx="2483" dy="1249" grid="0" gridSize="10" guides="1" tooltips="1" connect="1" arrows="1" fold="1" page="0" pageScale="1" pageWidth="850" pageHeight="1100" math="0" shadow="0">
      <root>
        <mxCell id="0" />
        <mxCell id="1" parent="0" />
        <mxCell id="DS74pKwt0t3M5IzEPWSn-1" value="ExamTaker" style="swimlane;childLayout=stackLayout;horizontal=1;startSize=50;horizontalStack=0;rounded=1;fontSize=14;fontStyle=0;strokeWidth=2;resizeParent=0;resizeLast=1;shadow=0;dashed=0;align=center;arcSize=4;whiteSpace=wrap;html=1;" parent="1" vertex="1">
          <mxGeometry x="-330" y="-179" width="160" height="171" as="geometry" />
        </mxCell>
        <mxCell id="DS74pKwt0t3M5IzEPWSn-2" value="+ ID&lt;br&gt;+ Name&lt;br&gt;------------------------------------&lt;br&gt;- Examination&lt;br&gt;- ExamAnswer" style="align=left;strokeColor=none;fillColor=none;spacingLeft=4;fontSize=12;verticalAlign=top;resizable=0;rotatable=0;part=1;html=1;" parent="DS74pKwt0t3M5IzEPWSn-1" vertex="1">
          <mxGeometry y="50" width="160" height="121" as="geometry" />
        </mxCell>
        <mxCell id="DS74pKwt0t3M5IzEPWSn-28" style="edgeStyle=none;curved=1;rounded=0;orthogonalLoop=1;jettySize=auto;html=1;entryX=0.5;entryY=1;entryDx=0;entryDy=0;fontSize=12;startSize=8;endSize=8;" parent="1" source="DS74pKwt0t3M5IzEPWSn-3" target="DS74pKwt0t3M5IzEPWSn-11" edge="1">
          <mxGeometry relative="1" as="geometry" />
        </mxCell>
        <mxCell id="DS74pKwt0t3M5IzEPWSn-3" value="Module" style="swimlane;childLayout=stackLayout;horizontal=1;startSize=50;horizontalStack=0;rounded=1;fontSize=14;fontStyle=0;strokeWidth=2;resizeParent=0;resizeLast=1;shadow=0;dashed=0;align=center;arcSize=4;whiteSpace=wrap;html=1;" parent="1" vertex="1">
          <mxGeometry x="732" y="42" width="160" height="263" as="geometry" />
        </mxCell>
        <mxCell id="DS74pKwt0t3M5IzEPWSn-4" value="+ ID&lt;br&gt;+ CourseID&lt;br&gt;+ Title&lt;br&gt;+ Description&lt;br&gt;+ Duration&lt;br&gt;+ PassingMark&lt;br&gt;------------------------------------&lt;br&gt;- Course&lt;br&gt;- Question&lt;br&gt;- Examination" style="align=left;strokeColor=none;fillColor=none;spacingLeft=4;fontSize=12;verticalAlign=top;resizable=0;rotatable=0;part=1;html=1;" parent="DS74pKwt0t3M5IzEPWSn-3" vertex="1">
          <mxGeometry y="50" width="160" height="213" as="geometry" />
        </mxCell>
        <mxCell id="DS74pKwt0t3M5IzEPWSn-5" value="Choice" style="swimlane;childLayout=stackLayout;horizontal=1;startSize=50;horizontalStack=0;rounded=1;fontSize=14;fontStyle=0;strokeWidth=2;resizeParent=0;resizeLast=1;shadow=0;dashed=0;align=center;arcSize=4;whiteSpace=wrap;html=1;" parent="1" vertex="1">
          <mxGeometry x="406" y="166" width="160" height="189" as="geometry" />
        </mxCell>
        <mxCell id="DS74pKwt0t3M5IzEPWSn-6" value="+ ID&lt;br&gt;+ QuestionID&lt;br&gt;+ ChoiceContent&lt;br&gt;--------------------------------------&lt;br&gt;-Question&lt;br&gt;- QuestionAnswer" style="align=left;strokeColor=none;fillColor=none;spacingLeft=4;fontSize=12;verticalAlign=top;resizable=0;rotatable=0;part=1;html=1;" parent="DS74pKwt0t3M5IzEPWSn-5" vertex="1">
          <mxGeometry y="50" width="160" height="139" as="geometry" />
        </mxCell>
        <mxCell id="DS74pKwt0t3M5IzEPWSn-7" value="ExamAnswer" style="swimlane;childLayout=stackLayout;horizontal=1;startSize=50;horizontalStack=0;rounded=1;fontSize=14;fontStyle=0;strokeWidth=2;resizeParent=0;resizeLast=1;shadow=0;dashed=0;align=center;arcSize=4;whiteSpace=wrap;html=1;" parent="1" vertex="1">
          <mxGeometry x="-518" y="278" width="160" height="230" as="geometry" />
        </mxCell>
        <mxCell id="DS74pKwt0t3M5IzEPWSn-8" value="+ ID&lt;br&gt;+ExaminationID&lt;br&gt;+ QuestionID&lt;br&gt;+ QAID&lt;br&gt;+ChoiceID&lt;br&gt;+ IsCorrect&lt;br&gt;------------------------------------&lt;br&gt;- Examination&lt;br&gt;- Question&lt;br&gt;- QuestionAnswer&lt;br&gt;- Result" style="align=left;strokeColor=none;fillColor=none;spacingLeft=4;fontSize=12;verticalAlign=top;resizable=0;rotatable=0;part=1;html=1;" parent="DS74pKwt0t3M5IzEPWSn-7" vertex="1">
          <mxGeometry y="50" width="160" height="180" as="geometry" />
        </mxCell>
        <mxCell id="DS74pKwt0t3M5IzEPWSn-10" value="Course" style="swimlane;childLayout=stackLayout;horizontal=1;startSize=50;horizontalStack=0;rounded=1;fontSize=14;fontStyle=0;strokeWidth=2;resizeParent=0;resizeLast=1;shadow=0;dashed=0;align=center;arcSize=4;whiteSpace=wrap;html=1;" parent="1" vertex="1">
          <mxGeometry x="440" y="-273" width="160" height="165" as="geometry">
            <mxRectangle x="440" y="-273" width="80" height="50" as="alternateBounds" />
          </mxGeometry>
        </mxCell>
        <mxCell id="DS74pKwt0t3M5IzEPWSn-11" value="+ ID&lt;br&gt;+ Title&lt;br&gt;+ Description&lt;br&gt;-------------------------------------&lt;br&gt;- Module&lt;br&gt;-- Examination" style="align=left;strokeColor=none;fillColor=none;spacingLeft=4;fontSize=12;verticalAlign=top;resizable=0;rotatable=0;part=1;html=1;" parent="DS74pKwt0t3M5IzEPWSn-10" vertex="1">
          <mxGeometry y="50" width="160" height="115" as="geometry" />
        </mxCell>
        <mxCell id="DS74pKwt0t3M5IzEPWSn-26" style="edgeStyle=none;curved=1;rounded=0;orthogonalLoop=1;jettySize=auto;html=1;entryX=1;entryY=0.75;entryDx=0;entryDy=0;fontSize=12;startSize=8;endSize=8;" parent="1" source="DS74pKwt0t3M5IzEPWSn-12" target="DS74pKwt0t3M5IzEPWSn-6" edge="1">
          <mxGeometry relative="1" as="geometry" />
        </mxCell>
        <mxCell id="DS74pKwt0t3M5IzEPWSn-54" style="edgeStyle=none;curved=1;rounded=0;orthogonalLoop=1;jettySize=auto;html=1;fontSize=12;startSize=8;endSize=8;" parent="1" source="DS74pKwt0t3M5IzEPWSn-12" target="DS74pKwt0t3M5IzEPWSn-4" edge="1">
          <mxGeometry relative="1" as="geometry" />
        </mxCell>
        <mxCell id="DS74pKwt0t3M5IzEPWSn-12" value="Question Bank" style="swimlane;childLayout=stackLayout;horizontal=1;startSize=50;horizontalStack=0;rounded=1;fontSize=14;fontStyle=0;strokeWidth=2;resizeParent=0;resizeLast=1;shadow=0;dashed=0;align=center;arcSize=4;whiteSpace=wrap;html=1;" parent="1" vertex="1">
          <mxGeometry x="456" y="429" width="160" height="194" as="geometry" />
        </mxCell>
        <mxCell id="DS74pKwt0t3M5IzEPWSn-13" value="+ ID&lt;br&gt;+ ModuleId&lt;br&gt;+ QuestionContent&lt;br&gt;+ Mark&lt;br&gt;-------------------------------------&lt;br&gt;- Exam&lt;br&gt;- Choice&lt;br&gt;- ExamAnswer&lt;br&gt;- QuestionAnswer" style="align=left;strokeColor=none;fillColor=none;spacingLeft=4;fontSize=12;verticalAlign=top;resizable=0;rotatable=0;part=1;html=1;" parent="DS74pKwt0t3M5IzEPWSn-12" vertex="1">
          <mxGeometry y="50" width="160" height="144" as="geometry" />
        </mxCell>
        <mxCell id="DS74pKwt0t3M5IzEPWSn-27" style="edgeStyle=none;curved=1;rounded=0;orthogonalLoop=1;jettySize=auto;html=1;entryX=0;entryY=1;entryDx=0;entryDy=0;fontSize=12;startSize=8;endSize=8;" parent="1" source="DS74pKwt0t3M5IzEPWSn-14" target="DS74pKwt0t3M5IzEPWSn-6" edge="1">
          <mxGeometry relative="1" as="geometry" />
        </mxCell>
        <mxCell id="DS74pKwt0t3M5IzEPWSn-14" value="QuestionAnswer" style="swimlane;childLayout=stackLayout;horizontal=1;startSize=50;horizontalStack=0;rounded=1;fontSize=14;fontStyle=0;strokeWidth=2;resizeParent=0;resizeLast=1;shadow=0;dashed=0;align=center;arcSize=4;whiteSpace=wrap;html=1;" parent="1" vertex="1">
          <mxGeometry x="117" y="262" width="160" height="167" as="geometry" />
        </mxCell>
        <mxCell id="DS74pKwt0t3M5IzEPWSn-15" value="+ ID&lt;br&gt;+ QuestionID&lt;br&gt;+ ChoiceID&lt;br&gt;--------------------------------------&lt;br&gt;- Question&lt;br&gt;- Choice&lt;br&gt;- ExamAnswer" style="align=left;strokeColor=none;fillColor=none;spacingLeft=4;fontSize=12;verticalAlign=top;resizable=0;rotatable=0;part=1;html=1;" parent="DS74pKwt0t3M5IzEPWSn-14" vertex="1">
          <mxGeometry y="50" width="160" height="117" as="geometry" />
        </mxCell>
        <mxCell id="DS74pKwt0t3M5IzEPWSn-58" style="edgeStyle=none;curved=1;rounded=0;orthogonalLoop=1;jettySize=auto;html=1;fontSize=12;startSize=8;endSize=8;" parent="1" source="DS74pKwt0t3M5IzEPWSn-16" target="DS74pKwt0t3M5IzEPWSn-52" edge="1">
          <mxGeometry relative="1" as="geometry" />
        </mxCell>
        <mxCell id="DS74pKwt0t3M5IzEPWSn-16" value="Result" style="swimlane;childLayout=stackLayout;horizontal=1;startSize=50;horizontalStack=0;rounded=1;fontSize=14;fontStyle=0;strokeWidth=2;resizeParent=0;resizeLast=1;shadow=0;dashed=0;align=center;arcSize=4;whiteSpace=wrap;html=1;" parent="1" vertex="1">
          <mxGeometry x="-129" y="106" width="160" height="249" as="geometry" />
        </mxCell>
        <mxCell id="DS74pKwt0t3M5IzEPWSn-17" value="+ ID&lt;br&gt;+ ExaminationID&lt;br&gt;+ TotalMark&lt;br&gt;-------------------------------------&lt;br&gt;- ExamTaker&lt;br&gt;- ExamAnswer" style="align=left;strokeColor=none;fillColor=none;spacingLeft=4;fontSize=12;verticalAlign=top;resizable=0;rotatable=0;part=1;html=1;" parent="DS74pKwt0t3M5IzEPWSn-16" vertex="1">
          <mxGeometry y="50" width="160" height="199" as="geometry" />
        </mxCell>
        <mxCell id="DS74pKwt0t3M5IzEPWSn-23" style="edgeStyle=none;curved=1;rounded=0;orthogonalLoop=1;jettySize=auto;html=1;entryX=1.006;entryY=0.144;entryDx=0;entryDy=0;fontSize=12;startSize=8;endSize=8;entryPerimeter=0;" parent="1" source="DS74pKwt0t3M5IzEPWSn-17" target="DS74pKwt0t3M5IzEPWSn-8" edge="1">
          <mxGeometry relative="1" as="geometry" />
        </mxCell>
        <mxCell id="DS74pKwt0t3M5IzEPWSn-25" style="edgeStyle=none;curved=1;rounded=0;orthogonalLoop=1;jettySize=auto;html=1;entryX=1.042;entryY=0.915;entryDx=0;entryDy=0;fontSize=12;startSize=8;endSize=8;entryPerimeter=0;" parent="1" source="DS74pKwt0t3M5IzEPWSn-13" target="DS74pKwt0t3M5IzEPWSn-15" edge="1">
          <mxGeometry relative="1" as="geometry" />
        </mxCell>
        <mxCell id="DS74pKwt0t3M5IzEPWSn-30" style="edgeStyle=none;curved=1;rounded=0;orthogonalLoop=1;jettySize=auto;html=1;entryX=1;entryY=0.5;entryDx=0;entryDy=0;fontSize=12;startSize=8;endSize=8;" parent="1" source="DS74pKwt0t3M5IzEPWSn-13" target="DS74pKwt0t3M5IzEPWSn-8" edge="1">
          <mxGeometry relative="1" as="geometry" />
        </mxCell>
        <mxCell id="DS74pKwt0t3M5IzEPWSn-51" value="Examination" style="swimlane;childLayout=stackLayout;horizontal=1;startSize=50;horizontalStack=0;rounded=1;fontSize=14;fontStyle=0;strokeWidth=2;resizeParent=0;resizeLast=1;shadow=0;dashed=0;align=center;arcSize=4;whiteSpace=wrap;html=1;" parent="1" vertex="1">
          <mxGeometry x="-31" y="-223" width="160" height="247" as="geometry" />
        </mxCell>
        <mxCell id="DS74pKwt0t3M5IzEPWSn-52" value="+ ID&lt;br&gt;+ ExamTakerID&lt;br&gt;+ Module ID&lt;br&gt;+ StartDateTime&lt;br&gt;+ EndDateTime&lt;br&gt;+ ResultID&lt;br&gt;--------------------------------------&lt;br&gt;- ExamTaker&lt;br&gt;- Module&lt;br&gt;- Result&lt;br&gt;- Course" style="align=left;strokeColor=none;fillColor=none;spacingLeft=4;fontSize=12;verticalAlign=top;resizable=0;rotatable=0;part=1;html=1;" parent="DS74pKwt0t3M5IzEPWSn-51" vertex="1">
          <mxGeometry y="50" width="160" height="197" as="geometry" />
        </mxCell>
        <mxCell id="DS74pKwt0t3M5IzEPWSn-56" style="edgeStyle=none;curved=1;rounded=0;orthogonalLoop=1;jettySize=auto;html=1;entryX=1;entryY=0.25;entryDx=0;entryDy=0;fontSize=12;startSize=8;endSize=8;" parent="1" source="DS74pKwt0t3M5IzEPWSn-52" target="DS74pKwt0t3M5IzEPWSn-2" edge="1">
          <mxGeometry relative="1" as="geometry" />
        </mxCell>
        <mxCell id="DS74pKwt0t3M5IzEPWSn-57" style="edgeStyle=none;curved=1;rounded=0;orthogonalLoop=1;jettySize=auto;html=1;entryX=0.004;entryY=0.324;entryDx=0;entryDy=0;entryPerimeter=0;fontSize=12;startSize=8;endSize=8;" parent="1" source="DS74pKwt0t3M5IzEPWSn-52" target="DS74pKwt0t3M5IzEPWSn-4" edge="1">
          <mxGeometry relative="1" as="geometry" />
        </mxCell>
        <mxCell id="DS74pKwt0t3M5IzEPWSn-61" style="edgeStyle=none;curved=1;rounded=0;orthogonalLoop=1;jettySize=auto;html=1;entryX=0;entryY=0.25;entryDx=0;entryDy=0;fontSize=12;startSize=8;endSize=8;" parent="1" source="DS74pKwt0t3M5IzEPWSn-52" target="DS74pKwt0t3M5IzEPWSn-11" edge="1">
          <mxGeometry relative="1" as="geometry" />
        </mxCell>
        <mxCell id="DS74pKwt0t3M5IzEPWSn-69" style="edgeStyle=none;curved=1;rounded=0;orthogonalLoop=1;jettySize=auto;html=1;entryX=0;entryY=0.5;entryDx=0;entryDy=0;fontSize=12;startSize=8;endSize=8;" parent="1" source="DS74pKwt0t3M5IzEPWSn-8" target="DS74pKwt0t3M5IzEPWSn-15" edge="1">
          <mxGeometry relative="1" as="geometry" />
        </mxCell>
        <mxCell id="DS74pKwt0t3M5IzEPWSn-70" style="edgeStyle=none;curved=1;rounded=0;orthogonalLoop=1;jettySize=auto;html=1;entryX=0;entryY=0.75;entryDx=0;entryDy=0;fontSize=12;startSize=8;endSize=8;" parent="1" source="DS74pKwt0t3M5IzEPWSn-8" target="DS74pKwt0t3M5IzEPWSn-52" edge="1">
          <mxGeometry relative="1" as="geometry" />
        </mxCell>
      </root>
    </mxGraphModel>
  </diagram>
</mxfile>
